<svg width="25" height="25" viewBox="0 0 25 25" fill="none" xmlns="http://www.w3.org/2000/svg">
<path d="M2.08325 5.2085L9.28432 9.29664C11.9152 10.7902 13.0846 10.7902 15.7155 9.29664L22.9166 5.2085" stroke="white" stroke-width="2" stroke-linejoin="round"/>
<path d="M22.9124 10.9401C22.9097 10.5581 22.9056 10.1773 22.9002 9.92352C22.8321 6.7293 22.798 5.13219 21.6198 3.94909C20.4415 2.766 18.8017 2.72478 15.522 2.64235C13.5006 2.59155 11.4992 2.59155 9.47786 2.64235C6.19818 2.72477 4.55834 2.76598 3.38008 3.94907C2.20182 5.13217 2.16777 6.72928 2.09967 9.9235C2.07778 10.9506 2.07778 11.9716 2.09967 12.9986C2.16777 16.1929 2.20182 17.79 3.38008 18.9731C4.55834 20.1562 6.19818 20.1974 9.47787 20.2798C10.1112 20.2957 10.9329 20.3066 11.4583 20.3126" stroke="white" stroke-width="2" stroke-linecap="round" stroke-linejoin="round"/>
<path d="M16.2354 19.4252C15.5804 19.8091 13.8631 20.593 14.909 21.574C15.42 22.0531 15.9891 22.3958 16.7045 22.3958H20.787C21.5025 22.3958 22.0716 22.0531 22.5825 21.574C23.6285 20.593 21.9111 19.8091 21.2562 19.4252C19.7202 18.5249 17.7713 18.5249 16.2354 19.4252Z" stroke="white" stroke-width="2"/>
<path d="M20.8291 14.5833C20.8291 15.7339 19.8964 16.6667 18.7458 16.6667C17.5952 16.6667 16.6624 15.7339 16.6624 14.5833C16.6624 13.4327 17.5952 12.5 18.7458 12.5C19.8964 12.5 20.8291 13.4327 20.8291 14.5833Z" stroke="white" stroke-width="2"/>
</svg>
