<svg width="69" height="64" viewBox="0 0 69 64" fill="none" xmlns="http://www.w3.org/2000/svg">
<g filter="url(#filter0_d_407_3)">
<rect width="61" height="56" transform="translate(4)" fill="#C4C4C4"/>
<path d="M33.4844 11C23.8242 10.9961 16 18.8164 16 28.4688C16 36.1016 20.8945 42.5899 27.7109 44.9727C28.6289 45.2032 28.4883 44.5508 28.4883 44.1055V41.0782C23.1875 41.6992 22.9727 38.1914 22.6172 37.6055C21.8984 36.3789 20.1992 36.0664 20.707 35.4805C21.9141 34.8594 23.1445 35.6367 24.5703 37.7422C25.6016 39.2696 27.6133 39.0117 28.6328 38.7578C28.8555 37.8399 29.332 37.0196 29.9883 36.3828C24.4961 35.3985 22.207 32.0469 22.207 28.0625C22.207 26.1289 22.8438 24.3516 24.0938 22.918C23.2969 20.5547 24.168 18.5313 24.2852 18.2305C26.5547 18.0274 28.9141 19.8555 29.0977 20C30.3867 19.6524 31.8594 19.4688 33.5078 19.4688C35.1641 19.4688 36.6406 19.6602 37.9414 20.0117C38.3828 19.6758 40.5703 18.1055 42.6797 18.2969C42.793 18.5977 43.6445 20.5742 42.8945 22.9063C44.1602 24.3438 44.8047 26.1367 44.8047 28.0742C44.8047 32.0664 42.5 35.4219 36.9922 36.3906C37.4639 36.8546 37.8385 37.4079 38.0941 38.0182C38.3496 38.6285 38.481 39.2837 38.4805 39.9453V44.3399C38.5117 44.6914 38.4805 45.0391 39.0664 45.0391C45.9844 42.7071 50.9648 36.1719 50.9648 28.4727C50.9648 18.8164 43.1367 11 33.4844 11Z" fill="black"/>
</g>
<defs>
<filter id="filter0_d_407_3" x="0" y="0" width="69" height="64" filterUnits="userSpaceOnUse" color-interpolation-filters="sRGB">
<feFlood flood-opacity="0" result="BackgroundImageFix"/>
<feColorMatrix in="SourceAlpha" type="matrix" values="0 0 0 0 0 0 0 0 0 0 0 0 0 0 0 0 0 0 127 0" result="hardAlpha"/>
<feOffset dy="4"/>
<feGaussianBlur stdDeviation="2"/>
<feColorMatrix type="matrix" values="0 0 0 0 0 0 0 0 0 0 0 0 0 0 0 0 0 0 0.25 0"/>
<feBlend mode="normal" in2="BackgroundImageFix" result="effect1_dropShadow_407_3"/>
<feBlend mode="normal" in="SourceGraphic" in2="effect1_dropShadow_407_3" result="shape"/>
</filter>
</defs>
</svg>
