<svg width="69" height="64" viewBox="0 0 69 64" fill="none" xmlns="http://www.w3.org/2000/svg">
<g filter="url(#filter0_d_407_2)">
<rect width="61" height="56" transform="translate(4)" fill="#C4C4C4"/>
<path d="M18.9167 17.2917L28.9982 23.0152C32.6814 25.1062 34.3186 25.1062 38.0018 23.0152L48.0833 17.2917" stroke="#090909" stroke-width="3" stroke-linejoin="round"/>
<path d="M48.0775 25.3159C48.0736 24.7811 48.0679 24.2481 48.0604 23.8927C47.965 19.4208 47.9174 17.1849 46.2678 15.5285C44.6182 13.8722 42.3225 13.8145 37.7309 13.6991C34.901 13.628 32.099 13.628 29.2691 13.6991C24.6776 13.8145 22.3818 13.8722 20.7322 15.5285C19.0827 17.1848 19.035 19.4208 18.9397 23.8927C18.909 25.3306 18.909 26.76 18.9397 28.1979C19.035 32.6698 19.0827 34.9058 20.7322 36.5621C22.3818 38.2184 24.6776 38.2761 29.2691 38.3915C30.1558 38.4138 31.3062 38.4291 32.0417 38.4374" stroke="#090909" stroke-width="3" stroke-linecap="round" stroke-linejoin="round"/>
<path d="M38.7296 37.1953C37.8126 37.7328 35.4083 38.8302 36.8727 40.2035C37.588 40.8744 38.3847 41.3542 39.3864 41.3542H45.1019C46.1035 41.3542 46.9002 40.8744 47.6156 40.2035C49.0799 38.8302 46.6756 37.7328 45.7587 37.1953C43.6084 35.9349 40.8799 35.9349 38.7296 37.1953Z" stroke="#090909" stroke-width="3"/>
<path d="M45.1608 30.4167C45.1608 32.0275 43.855 33.3333 42.2441 33.3333C40.6333 33.3333 39.3275 32.0275 39.3275 30.4167C39.3275 28.8058 40.6333 27.5 42.2441 27.5C43.855 27.5 45.1608 28.8058 45.1608 30.4167Z" stroke="#090909" stroke-width="3"/>
</g>
<defs>
<filter id="filter0_d_407_2" x="0" y="0" width="69" height="64" filterUnits="userSpaceOnUse" color-interpolation-filters="sRGB">
<feFlood flood-opacity="0" result="BackgroundImageFix"/>
<feColorMatrix in="SourceAlpha" type="matrix" values="0 0 0 0 0 0 0 0 0 0 0 0 0 0 0 0 0 0 127 0" result="hardAlpha"/>
<feOffset dy="4"/>
<feGaussianBlur stdDeviation="2"/>
<feColorMatrix type="matrix" values="0 0 0 0 0 0 0 0 0 0 0 0 0 0 0 0 0 0 0.25 0"/>
<feBlend mode="normal" in2="BackgroundImageFix" result="effect1_dropShadow_407_2"/>
<feBlend mode="normal" in="SourceGraphic" in2="effect1_dropShadow_407_2" result="shape"/>
</filter>
</defs>
</svg>
